<?xml version="1.0" encoding="UTF-8" standalone="no"?>
<svg
   xmlns:dc="http://purl.org/dc/elements/1.1/"
   xmlns:cc="http://creativecommons.org/ns#"
   xmlns:rdf="http://www.w3.org/1999/02/22-rdf-syntax-ns#"
   xmlns:svg="http://www.w3.org/2000/svg"
   xmlns="http://www.w3.org/2000/svg"
   xmlns:sodipodi="http://sodipodi.sourceforge.net/DTD/sodipodi-0.dtd"
   xmlns:inkscape="http://www.inkscape.org/namespaces/inkscape"
   version="1.1"
   id="svg2"
   xml:space="preserve"
   width="628.35999"
   height="587.32001"
   viewBox="0 0 628.35999 587.32001"
   sodipodi:docname="AISG Vertical Logo wo tagline CMYK Full Colour.eps"><metadata
     id="metadata8"><rdf:RDF><cc:Work
         rdf:about=""><dc:format>image/svg+xml</dc:format><dc:type
           rdf:resource="http://purl.org/dc/dcmitype/StillImage" /></cc:Work></rdf:RDF></metadata><defs
     id="defs6"><clipPath
       clipPathUnits="userSpaceOnUse"
       id="clipPath42"><path
         d="m 2092.42,799.832 c -66.24,0 -120.09,53.859 -120.09,120.09 0,66.238 53.85,120.088 120.09,120.088 66.23,0 120.1,-53.85 120.1,-120.088 0,-66.231 -53.87,-120.09 -120.1,-120.09 z m 65.25,262.628 V 2366.03 L 2473,2677.5 c 12.8,12.64 20.07,29.81 20.28,47.8 l 4.59,416.91 111.3,143.91 c 9.25,11.95 14.25,26.63 14.25,41.74 v 419.11 c 0,24.34 -12.95,46.84 -34.03,59.03 l -176.33,102.13 v 237.75 c 41.94,23.81 70.3,68.8 70.3,120.46 0,76.49 -62.03,138.52 -138.52,138.52 -76.49,0 -138.52,-62.03 -138.52,-138.52 0,-51.66 28.35,-96.64 70.29,-120.45 V 3868.8 c 0,-24.35 12.96,-46.85 34.04,-59.03 l 176.33,-102.13 V 3351.17 L 2375.92,3207.6 c -9.08,-11.75 -14.09,-26.14 -14.25,-41.01 l -4.53,-411.73 -199.47,-197.01 v 532.87 c 0,16.88 -6.26,33.16 -17.57,45.68 l -173.63,192.53 v 480.71 c 41.93,23.81 70.28,68.79 70.28,120.45 0,76.49 -62.02,138.52 -138.51,138.52 -76.49,0 -138.52,-62.03 -138.52,-138.52 0,-51.67 28.36,-96.65 70.3,-120.46 V 3302.7 c 0,-16.89 6.27,-33.16 17.57,-45.68 l 173.63,-192.54 v -411.21 l -315.58,290.31 v 278.71 c 0,15.16 -5.04,29.89 -14.35,41.86 l -103.03,132.61 v 185.94 c 41.94,23.81 70.29,68.79 70.29,120.45 0,76.49 -62.03,138.52 -138.52,138.52 -76.49,0 -138.51,-62.03 -138.51,-138.52 0,-51.66 28.35,-96.65 70.29,-120.45 v -209.34 c 0,-15.15 5.05,-29.88 14.35,-41.86 l 103.03,-132.6 v -285.26 c 0,-19.08 7.99,-37.29 22.04,-50.22 l 429.99,-395.57 V 1059.59 c -50.81,-26 -85.74,-78.789 -85.74,-139.668 0,-86.531 70.41,-156.942 156.94,-156.942 86.53,0 156.94,70.411 156.94,156.942 0,63.226 -37.68,117.708 -91.69,142.538 z"
         id="path40" /></clipPath><linearGradient
       x1="0"
       y1="0"
       x2="1"
       y2="0"
       gradientUnits="userSpaceOnUse"
       gradientTransform="matrix(0,3641.88,3641.88,0,2002.47,762.98)"
       spreadMethod="pad"
       id="linearGradient48"><stop
         style="stop-opacity:1;stop-color:#f9a72b"
         offset="0"
         id="stop44" /><stop
         style="stop-opacity:1;stop-color:#ed1c24"
         offset="1"
         id="stop46" /></linearGradient><clipPath
       clipPathUnits="userSpaceOnUse"
       id="clipPath58"><path
         d="m 2682.6,945 c -0.02,1.879 -0.02,2.18 0,0 z"
         id="path56" /></clipPath><linearGradient
       x1="0"
       y1="0"
       x2="1"
       y2="0"
       gradientUnits="userSpaceOnUse"
       gradientTransform="matrix(0,1.52001,1.52001,0,2682.59,945.01)"
       spreadMethod="pad"
       id="linearGradient64"><stop
         style="stop-opacity:1;stop-color:#f9a72b"
         offset="0"
         id="stop60" /><stop
         style="stop-opacity:1;stop-color:#ed1c24"
         offset="1"
         id="stop62" /></linearGradient><clipPath
       clipPathUnits="userSpaceOnUse"
       id="clipPath74"><path
         d="m 2682.61,944.23 c -0.01,0.25 -0.01,0.579 -0.01,0.77 0,-0.238 0,-0.469 0.01,-0.77 z"
         id="path72" /></clipPath><linearGradient
       x1="0"
       y1="0"
       x2="1"
       y2="0"
       gradientUnits="userSpaceOnUse"
       gradientTransform="matrix(0,0.774532,0.774532,0,2682.61,944.23)"
       spreadMethod="pad"
       id="linearGradient80"><stop
         style="stop-opacity:1;stop-color:#f9a72b"
         offset="0"
         id="stop76" /><stop
         style="stop-opacity:1;stop-color:#ed1c24"
         offset="1"
         id="stop78" /></linearGradient><clipPath
       clipPathUnits="userSpaceOnUse"
       id="clipPath90"><path
         d="m 2683.1,898.941 c 0,-0.23 0,-0.531 0.01,-0.711 -0.01,0.219 -0.01,0.442 -0.01,0.711 z"
         id="path88" /></clipPath><linearGradient
       x1="0"
       y1="0"
       x2="1"
       y2="0"
       gradientUnits="userSpaceOnUse"
       gradientTransform="matrix(0,0.713854,0.713854,0,2683.1,898.23)"
       spreadMethod="pad"
       id="linearGradient96"><stop
         style="stop-opacity:1;stop-color:#f9a72b"
         offset="0"
         id="stop92" /><stop
         style="stop-opacity:1;stop-color:#ed1c24"
         offset="1"
         id="stop94" /></linearGradient><clipPath
       clipPathUnits="userSpaceOnUse"
       id="clipPath106"><path
         d="m 2683.11,898.23 c 0.02,-1.91 0.02,-2.218 0,0 z"
         id="path104" /></clipPath><linearGradient
       x1="0"
       y1="0"
       x2="1"
       y2="0"
       gradientUnits="userSpaceOnUse"
       gradientTransform="matrix(0,1.5472,1.5472,0,2683.12,896.68)"
       spreadMethod="pad"
       id="linearGradient112"><stop
         style="stop-opacity:1;stop-color:#f9a72b"
         offset="0"
         id="stop108" /><stop
         style="stop-opacity:1;stop-color:#ed1c24"
         offset="1"
         id="stop110" /></linearGradient><clipPath
       clipPathUnits="userSpaceOnUse"
       id="clipPath122"><path
         d="m 2682.61,944.23 c 0.03,-3.25 0.11,-10.191 0.25,-22.621 0.1,-9.461 0.16,-15.668 0.2,-19.597 -0.11,10.777 -0.37,34.687 -0.45,42.218 z"
         id="path120" /></clipPath><linearGradient
       x1="0"
       y1="0"
       x2="1"
       y2="0"
       gradientUnits="userSpaceOnUse"
       gradientTransform="matrix(0,42.2233,42.2233,0,2682.84,902.01)"
       spreadMethod="pad"
       id="linearGradient128"><stop
         style="stop-opacity:1;stop-color:#f9a72b"
         offset="0"
         id="stop124" /><stop
         style="stop-opacity:1;stop-color:#ed1c24"
         offset="1"
         id="stop126" /></linearGradient><clipPath
       clipPathUnits="userSpaceOnUse"
       id="clipPath138"><path
         d="m 2683.06,902.012 c 0.02,-1.192 0.03,-2.242 0.04,-3.071 -0.01,0.778 -0.02,1.821 -0.04,3.071 z"
         id="path136" /></clipPath><linearGradient
       x1="0"
       y1="0"
       x2="1"
       y2="0"
       gradientUnits="userSpaceOnUse"
       gradientTransform="matrix(0,3.07076,3.07076,0,2683.08,898.94)"
       spreadMethod="pad"
       id="linearGradient144"><stop
         style="stop-opacity:1;stop-color:#f9a72b"
         offset="0"
         id="stop140" /><stop
         style="stop-opacity:1;stop-color:#ed1c24"
         offset="1"
         id="stop142" /></linearGradient><clipPath
       clipPathUnits="userSpaceOnUse"
       id="clipPath154"><path
         d="m 2646.01,921.199 c 0.73,-66.23 -52.56,-120.668 -118.79,-121.379 -66.23,-0.711 -120.67,52.559 -121.38,118.801 -0.72,66.231 52.56,120.659 118.79,121.369 66.24,0.73 120.67,-52.549 121.38,-118.791 z m -240.3,9.852 c 0.01,-0.93 0.02,-1.91 0.03,-2.949 -0.01,1.097 -0.03,2.046 -0.03,2.949 z m 0.33,-31.313 c 0,-0.226 0,-0.289 0,0 z m 2272,2068.252 c -50.63,57.33 -138.19,62.76 -195.51,12.12 -38.72,-34.2 -53.67,-85.23 -43.75,-132.42 l -156.28,-138.04 -467.32,-11.1 c -16.58,-0.4 -32.43,-6.81 -44.62,-18.04 l -215.83,-198.95 h -218.19 v 167.85 l 246.31,252.71 429.07,-2.36 c 0.14,0 0.24,0 0.38,0 17.4,0 34.13,6.65 46.79,18.58 l 79.55,74.97 c 46.09,-14.19 98.28,-3.98 135.88,31.45 55.66,52.47 58.27,140.15 5.81,195.81 -52.46,55.67 -140.14,58.27 -195.8,5.81 -37.61,-35.43 -50.9,-86.92 -39.46,-133.77 l -59.68,-56.24 -370.6,2.03 v 126.1 l 84.78,80.68 c 46.16,-13.96 98.29,-3.48 135.71,32.13 55.41,52.74 57.57,140.43 4.83,195.84 -52.73,55.4 -140.43,57.57 -195.83,4.84 -37.42,-35.62 -50.45,-87.17 -38.79,-133.96 l -105.96,-100.86 c -13.54,-12.86 -21.19,-30.74 -21.19,-49.41 v -203.35 l -258.89,-265.63 c -14.57,-14.96 -20.59,-34.86 -18.74,-54.14 -0.19,-2.06 -0.63,-4.05 -0.63,-6.16 v -223.2 l -516.65,-525.02 h -136.66 l -133.71,162.13 v 130.5 l 437.67,421.59 c 2.21,1.76 4.48,3.38 6.5,5.46 l 11.25,11.64 8.23,7.91 c 1.44,1.39 2.53,3.05 3.83,4.55 l 385.89,398.85 c 12.3,12.71 19.19,29.73 19.19,47.43 v 230.86 l 106.81,93.62 c 14.77,12.94 23.24,31.65 23.24,51.3 v 109.86 c 41.94,23.81 70.29,68.8 70.29,120.46 0,76.49 -62.03,138.52 -138.51,138.52 -76.5,0 -138.52,-62.03 -138.52,-138.52 0,-51.66 28.35,-96.65 70.3,-120.46 v -78.95 l -106.82,-93.62 c -14.78,-12.94 -23.24,-31.66 -23.24,-51.3 v -234.17 l -254.48,-263.01 -7.9,451.66 183.29,186.52 c 12.53,12.75 19.57,29.92 19.57,47.82 v 213.74 c 41.93,23.81 70.28,68.79 70.28,120.45 0,76.49 -62.03,138.52 -138.52,138.52 -76.49,0 -138.51,-62.03 -138.51,-138.52 0,-51.66 28.35,-96.65 70.29,-120.46 v -185.83 l -183.77,-187 c -12.83,-13.07 -19.88,-30.71 -19.55,-49.02 l 10.77,-615.65 -463.13,-446.11 c -13.36,-12.85 -20.9,-30.59 -20.9,-49.14 v -635.15 c 0,-20.62 9.33,-40.13 25.37,-53.1 l 156.1,-125.99 3.89,-360.5 c -55.29,-24.8 -93.66,-80.591 -92.97,-144.931 0.94,-86.528 72.1,-156.18 158.62,-155.239 86.53,0.942 156.18,72.098 155.24,158.629 -0.65,59.75 -34.81,111.421 -84.38,137.391 l -4.29,398.28 c -0.23,20.35 -9.53,39.56 -25.37,52.35 l -155.76,125.72 v 228.59 l 48.9,-59.31 c 12.97,-15.72 32.27,-24.82 52.64,-24.82 H 2712 c 18.28,0 35.81,7.35 48.62,20.37 l 536.27,544.93 h 284.49 c 17.13,0 33.64,6.45 46.24,18.06 l 216.52,199.58 466.48,11.08 c 16.07,0.38 31.51,6.43 43.56,17.07 l 174.93,154.51 c 45.6,-15.67 98.09,-7.14 136.81,27.06 57.33,50.64 62.76,138.19 12.12,195.52 z"
         id="path152" /></clipPath><linearGradient
       x1="0"
       y1="0"
       x2="1"
       y2="0"
       gradientUnits="userSpaceOnUse"
       gradientTransform="matrix(0,3266.65,3266.65,0,3494.67,762.97)"
       spreadMethod="pad"
       id="linearGradient160"><stop
         style="stop-opacity:1;stop-color:#f9a72b"
         offset="0"
         id="stop156" /><stop
         style="stop-opacity:1;stop-color:#ed1c24"
         offset="1"
         id="stop158" /></linearGradient><clipPath
       clipPathUnits="userSpaceOnUse"
       id="clipPath170"><path
         d="m 1752.89,919.922 c 0,-66.231 -53.86,-120.09 -120.1,-120.09 -66.24,0 -120.09,53.859 -120.09,120.09 0,66.238 53.85,120.088 120.09,120.088 66.24,0 120.1,-53.85 120.1,-120.088 z m 71.92,1525.888 -302.18,-4.53 -130.23,96.62 v 290.48 c 0,17.85 -7,35 -19.49,47.76 l -235.98,240.77 c 0.01,0.48 0.14,0.93 0.14,1.4 v 251.53 l 111.95,94.89 c 15.31,12.97 24.12,32.01 24.12,52.05 v 65.92 c 41.93,23.81 70.28,68.79 70.28,120.45 0,76.49 -62.02,138.52 -138.51,138.52 -76.49,0 -138.52,-62.03 -138.52,-138.52 0,-51.66 28.36,-96.65 70.3,-120.45 v -34.3 l -111.95,-94.9 c -15.31,-12.96 -24.12,-32 -24.12,-52.04 v -145.48 l -178.675,182.3 v 144.42 c 41.942,23.8 70.297,68.79 70.297,120.45 0,76.49 -62.023,138.52 -138.515,138.52 -76.489,0 -138.52,-62.03 -138.52,-138.52 0,-51.66 28.348,-96.64 70.289,-120.45 v -104.07 h -70.555 c -23.804,41.94 -68.793,70.3 -120.453,70.3 -76.492,0 -138.519,-62.03 -138.519,-138.52 0,-76.49 62.027,-138.52 138.519,-138.52 51.66,0 96.641,28.36 120.45,70.29 h 110.113 l 530.899,-541.67 v -161.37 l -19.77,14.67 c -8.03,10.96 -19.22,19.3 -32.26,23.93 L 871.191,2924.6 c -11.765,8.74 -26.023,13.45 -40.664,13.45 H 551.254 l -122.516,143.37 c -12.965,15.18 -31.925,23.92 -51.875,23.92 H 258.969 c -23.817,41.93 -68.793,70.28 -120.453,70.28 C 62.0234,3175.62 0,3113.59 0,3037.1 c 0,-76.49 62.0234,-138.51 138.516,-138.51 51.668,0 96.648,28.35 120.461,70.29 h 86.441 L 467.93,2825.5 c 12.965,-15.17 31.925,-23.9 51.875,-23.9 H 807.988 L 969.324,2681.89 H 734.555 c -19.992,0 -38.953,-8.75 -51.918,-23.96 L 586.105,2544.7 h -260.91 c -17.093,0 -33.539,-6.42 -46.14,-17.97 l -69.121,-63.45 c -45.899,14.8 -98.207,5.26 -136.266,-29.68 -56.3516,-51.72 -60.0977,-139.36 -8.3672,-195.71 51.7222,-56.34 139.3592,-60.09 195.7112,-8.37 38.058,34.94 52.023,86.24 41.203,133.24 l 49.558,45.49 h 265.821 c 19.984,0 38.945,8.76 51.91,23.97 l 96.531,113.22 h 387.195 l 306.65,-227.52 c 12.06,-8.92 26.75,-13.62 41.69,-13.43 l 256.04,3.84 V 1611 L 1600.7,1510.81 c -19.63,-12.54 -31.51,-34.22 -31.51,-57.51 v -390.04 c -54.91,-24.47 -93.33,-79.459 -93.33,-143.338 0,-86.531 70.41,-156.942 156.93,-156.942 86.53,0 156.94,70.411 156.94,156.942 0,60.226 -34.16,112.578 -84.09,138.868 v 357.13 l 156.92,100.19 c 19.62,12.54 31.5,34.23 31.5,57.51 v 803.96 c 0,18.28 -7.33,35.79 -20.35,48.6 -13.02,12.83 -30.95,19.19 -48.9,19.63 z"
         id="path168" /></clipPath><linearGradient
       x1="0"
       y1="0"
       x2="1"
       y2="0"
       gradientUnits="userSpaceOnUse"
       gradientTransform="matrix(0,3078.69,3078.69,0,947.03,762.98)"
       spreadMethod="pad"
       id="linearGradient176"><stop
         style="stop-opacity:1;stop-color:#f9a72b"
         offset="0"
         id="stop172" /><stop
         style="stop-opacity:1;stop-color:#ed1c24"
         offset="1"
         id="stop174" /></linearGradient></defs><sodipodi:namedview
     pagecolor="#ffffff"
     bordercolor="#666666"
     borderopacity="1"
     objecttolerance="10"
     gridtolerance="10"
     guidetolerance="10"
     inkscape:pageopacity="0"
     inkscape:pageshadow="2"
     inkscape:window-width="640"
     inkscape:window-height="480"
     id="namedview4" /><g
     id="g10"
     inkscape:groupmode="layer"
     inkscape:label="ink_ext_XXXXXX"
     transform="matrix(1.3333333,0,0,-1.3333333,0,587.32)"><g
       id="g12"
       transform="scale(0.1)"><path
         d="M 495.426,140.34 442,228.781 303.68,1.57813 H 234.977 L 401.578,278.641 c 4.184,7.168 10.035,13.75 17.508,19.738 8.988,6.902 17.062,10.34 24.266,10.34 7.761,0 15.859,-3.309 24.242,-9.879 7.183,-5.699 13.011,-12.418 17.504,-20.199 L 647.668,1.12109 578.945,1.57813 527.313,87.3516"
         style="fill:#ed1c24;fill-opacity:1;fill-rule:nonzero;stroke:none"
         id="path14" /><path
         d="M 759.324,1.12109 H 705.895 V 307.82 h 53.429 V 1.12109"
         style="fill:#ed1c24;fill-opacity:1;fill-rule:nonzero;stroke:none"
         id="path16" /><path
         d="M 1276.97,97.8984 C 1276.97,68.8516 1266.65,45.5 1245.98,27.8516 1226.23,11.3711 1201.53,3.14844 1171.89,3.14844 H 937.938 V 56.6016 h 233.952 c 14.67,0 27.39,3.2773 38.17,9.8593 12.28,8.0899 18.42,19 18.42,32.7774 0,13.7737 -6.29,24.3907 -18.86,31.8907 -10.49,6.281 -23.06,9.422 -37.73,9.422 h -144.58 c -26.66,0 -48.958,7.34 -66.919,22 -19.164,15.879 -28.739,36.84 -28.739,62.871 0,25.75 9.575,46.558 28.739,62.43 17.961,14.66 40.259,21.988 66.919,21.988 h 231.24 v -53.43 h -231.24 c -10.2,0 -18.88,-2.851 -26.06,-8.531 -7.18,-5.699 -10.785,-13.32 -10.785,-22.899 0,-9.878 3.605,-17.519 10.785,-22.91 7.18,-5.39 15.86,-8.07 26.06,-8.07 h 144.58 c 29.64,0 54.34,-8.539 74.09,-25.602 20.67,-17.968 30.99,-41.457 30.99,-70.4996"
         style="fill:#ed1c24;fill-opacity:1;fill-rule:nonzero;stroke:none"
         id="path18" /><path
         d="m 1385.18,3.14844 h -53.43 V 309.84 h 53.43 V 3.14844"
         style="fill:#ed1c24;fill-opacity:1;fill-rule:nonzero;stroke:none"
         id="path20" /><path
         d="M 1763.74,29.6406 C 1763.74,9.89063 1756.99,0 1743.53,0 c -9.89,0 -20.96,6.14844 -33.24,18.4219 L 1513.61,216 V 3.14844 h -52.99 V 283.34 c 0,7.199 1.94,13.398 5.83,18.648 3.89,5.242 9.43,7.852 16.63,7.852 9.87,0 20.04,-5.231 30.53,-15.719 L 1710.29,96.9883 V 309.84 h 53.45 V 29.6406"
         style="fill:#ed1c24;fill-opacity:1;fill-rule:nonzero;stroke:none"
         id="path22" /><path
         d="m 2178.2,3.14844 h -194.89 c -44.62,0 -81.51,14.81246 -110.69,44.45316 -29.2,29.6367 -43.78,67.0584 -43.78,112.2694 0,44.91 14.43,81.117 43.32,108.66 28.89,27.551 65.94,41.309 111.15,41.309 h 172.89 v -53.43 h -172.89 c -29.35,0 -53.52,-9.422 -72.52,-28.281 -19.03,-18.879 -28.53,-43.129 -28.53,-72.758 0,-29.34 9.5,-53.141 28.53,-71.3905 19,-18.2696 43.17,-27.3789 72.52,-27.3789 h 141.44 v 66.8864 h -145.48 v 48.953 H 2178.2 V 3.14844"
         style="fill:#ed1c24;fill-opacity:1;fill-rule:nonzero;stroke:none"
         id="path24" /><path
         d="m 2468.72,142.359 -53.43,88.45 L 2276.97,3.60938 h -68.7 L 2374.88,280.66 c 4.18,7.192 10.03,13.762 17.5,19.75 8.99,6.891 17.07,10.352 24.27,10.352 7.76,0 15.86,-3.313 24.25,-9.891 7.17,-5.699 13,-12.43 17.5,-20.211 L 2620.96,3.14844 2552.24,3.60938 2500.6,89.3711"
         style="fill:#ed1c24;fill-opacity:1;fill-rule:nonzero;stroke:none"
         id="path26" /><path
         d="m 2983.77,199.391 c 0,-33.539 -12.28,-60.629 -36.82,-81.289 -22.74,-19.1528 -51.35,-28.7309 -85.77,-28.7309 h -135.16 v 52.9879 h 143.69 c 17.67,0 32.49,5.223 44.46,15.711 11.97,10.469 17.97,24.391 17.97,41.762 0,17.348 -6,31.129 -17.97,41.309 -11.97,10.168 -26.79,15.269 -44.46,15.269 H 2694.58 V 3.14844 h -53.43 V 309.84 h 220.03 c 34.42,0 63.03,-9.719 85.77,-29.18 24.54,-20.351 36.82,-47.449 36.82,-81.269"
         style="fill:#ed1c24;fill-opacity:1;fill-rule:nonzero;stroke:none"
         id="path28" /><path
         d="m 3356.5,155.371 c 0,29.629 -9.5,53.879 -28.52,72.758 -19.01,18.859 -43.32,28.281 -72.96,28.281 h -85.78 c -29.34,0 -53.51,-9.422 -72.51,-28.281 C 3077.7,209.25 3068.2,185 3068.2,155.371 c 0,-29.34 9.5,-53.141 28.53,-71.3905 19,-18.2696 43.17,-27.3789 72.51,-27.3789 h 85.78 c 29.64,0 53.95,9.1093 72.96,27.3789 19.02,18.2495 28.52,42.0505 28.52,71.3905 z m 52.99,4.5 c 0,-45.211 -14.53,-82.6327 -43.57,-112.2694 -29.03,-29.6407 -66.01,-44.45316 -110.9,-44.45316 h -85.78 c -44.61,0 -81.51,14.81246 -110.69,44.45316 -29.2,29.6367 -43.78,67.0584 -43.78,112.2694 0,44.91 14.45,81.117 43.33,108.66 28.89,27.551 65.94,41.309 111.14,41.309 h 85.78 c 45.49,0 82.62,-13.758 111.36,-41.309 28.74,-27.543 43.11,-63.75 43.11,-108.66"
         style="fill:#ed1c24;fill-opacity:1;fill-rule:nonzero;stroke:none"
         id="path30" /><path
         d="m 3813.18,3.14844 h -79.02 L 3648.4,89.3711 h -115.41 v 52.9879 h 143.69 c 19.75,0 36.37,4.332 49.84,13.012 15.27,10.18 22.9,24.699 22.9,43.559 0,38.32 -24.25,57.48 -72.74,57.48 H 3501.54 V 3.14844 h -53.43 V 309.84 h 220.03 c 39.52,0 71.41,-8.539 95.66,-25.578 27.85,-19.481 41.74,-48.063 41.74,-85.774 0,-25.758 -8.07,-47.91 -24.23,-66.468 -14.98,-17.36 -35.33,-29.5 -61.08,-36.3598 l 92.95,-92.51176"
         style="fill:#ed1c24;fill-opacity:1;fill-rule:nonzero;stroke:none"
         id="path32" /><path
         d="m 4113.61,132.02 h -175.14 v 53.441 h 175.14 z M 4127.54,3.14844 H 3862.59 V 309.84 h 264.95 V 256.41 H 3916.02 V 56.6016 h 211.52 V 3.14844"
         style="fill:#ed1c24;fill-opacity:1;fill-rule:nonzero;stroke:none"
         id="path34" /><g
         id="g36"><g
           id="g38"
           clip-path="url(#clipPath42)"><path
             d="m 2092.42,799.832 c -66.24,0 -120.09,53.859 -120.09,120.09 0,66.238 53.85,120.088 120.09,120.088 66.23,0 120.1,-53.85 120.1,-120.088 0,-66.231 -53.87,-120.09 -120.1,-120.09 z m 65.25,262.628 V 2366.03 L 2473,2677.5 c 12.8,12.64 20.07,29.81 20.28,47.8 l 4.59,416.91 111.3,143.91 c 9.25,11.95 14.25,26.63 14.25,41.74 v 419.11 c 0,24.34 -12.95,46.84 -34.03,59.03 l -176.33,102.13 v 237.75 c 41.94,23.81 70.3,68.8 70.3,120.46 0,76.49 -62.03,138.52 -138.52,138.52 -76.49,0 -138.52,-62.03 -138.52,-138.52 0,-51.66 28.35,-96.64 70.29,-120.45 V 3868.8 c 0,-24.35 12.96,-46.85 34.04,-59.03 l 176.33,-102.13 V 3351.17 L 2375.92,3207.6 c -9.08,-11.75 -14.09,-26.14 -14.25,-41.01 l -4.53,-411.73 -199.47,-197.01 v 532.87 c 0,16.88 -6.26,33.16 -17.57,45.68 l -173.63,192.53 v 480.71 c 41.93,23.81 70.28,68.79 70.28,120.45 0,76.49 -62.02,138.52 -138.51,138.52 -76.49,0 -138.52,-62.03 -138.52,-138.52 0,-51.67 28.36,-96.65 70.3,-120.46 V 3302.7 c 0,-16.89 6.27,-33.16 17.57,-45.68 l 173.63,-192.54 v -411.21 l -315.58,290.31 v 278.71 c 0,15.16 -5.04,29.89 -14.35,41.86 l -103.03,132.61 v 185.94 c 41.94,23.81 70.29,68.79 70.29,120.45 0,76.49 -62.03,138.52 -138.52,138.52 -76.49,0 -138.51,-62.03 -138.51,-138.52 0,-51.66 28.35,-96.65 70.29,-120.45 v -209.34 c 0,-15.15 5.05,-29.88 14.35,-41.86 l 103.03,-132.6 v -285.26 c 0,-19.08 7.99,-37.29 22.04,-50.22 l 429.99,-395.57 V 1059.59 c -50.81,-26 -85.74,-78.789 -85.74,-139.668 0,-86.531 70.41,-156.942 156.94,-156.942 86.53,0 156.94,70.411 156.94,156.942 0,63.226 -37.68,117.708 -91.69,142.538"
             style="fill:url(#linearGradient48);fill-opacity:1;fill-rule:nonzero;stroke:none"
             id="path50" /></g></g><g
         id="g52"><g
           id="g54"
           clip-path="url(#clipPath58)"><path
             d="m 2682.6,945 c -0.02,1.879 -0.02,2.18 0,0 v 0"
             style="fill:url(#linearGradient64);fill-opacity:1;fill-rule:nonzero;stroke:none"
             id="path66" /></g></g><g
         id="g68"><g
           id="g70"
           clip-path="url(#clipPath74)"><path
             d="m 2682.61,944.23 c -0.01,0.25 -0.01,0.579 -0.01,0.77 0,-0.238 0,-0.469 0.01,-0.77"
             style="fill:url(#linearGradient80);fill-opacity:1;fill-rule:nonzero;stroke:none"
             id="path82" /></g></g><g
         id="g84"><g
           id="g86"
           clip-path="url(#clipPath90)"><path
             d="m 2683.1,898.941 c 0,-0.23 0,-0.531 0.01,-0.711 -0.01,0.219 -0.01,0.442 -0.01,0.711"
             style="fill:url(#linearGradient96);fill-opacity:1;fill-rule:nonzero;stroke:none"
             id="path98" /></g></g><g
         id="g100"><g
           id="g102"
           clip-path="url(#clipPath106)"><path
             d="m 2683.11,898.23 c 0.02,-1.91 0.02,-2.218 0,0 v 0"
             style="fill:url(#linearGradient112);fill-opacity:1;fill-rule:nonzero;stroke:none"
             id="path114" /></g></g><g
         id="g116"><g
           id="g118"
           clip-path="url(#clipPath122)"><path
             d="m 2682.61,944.23 c 0.03,-3.25 0.11,-10.191 0.25,-22.621 0.1,-9.461 0.16,-15.668 0.2,-19.597 -0.11,10.777 -0.37,34.687 -0.45,42.218"
             style="fill:url(#linearGradient128);fill-opacity:1;fill-rule:nonzero;stroke:none"
             id="path130" /></g></g><g
         id="g132"><g
           id="g134"
           clip-path="url(#clipPath138)"><path
             d="m 2683.06,902.012 c 0.02,-1.192 0.03,-2.242 0.04,-3.071 -0.01,0.778 -0.02,1.821 -0.04,3.071"
             style="fill:url(#linearGradient144);fill-opacity:1;fill-rule:nonzero;stroke:none"
             id="path146" /></g></g><g
         id="g148"><g
           id="g150"
           clip-path="url(#clipPath154)"><path
             d="m 2646.01,921.199 c 0.73,-66.23 -52.56,-120.668 -118.79,-121.379 -66.23,-0.711 -120.67,52.559 -121.38,118.801 -0.72,66.231 52.56,120.659 118.79,121.369 66.24,0.73 120.67,-52.549 121.38,-118.791 z m -240.3,9.852 c 0.01,-0.93 0.02,-1.91 0.03,-2.949 -0.01,1.097 -0.03,2.046 -0.03,2.949 z m 0.33,-31.313 c 0,-0.226 0,-0.289 0,0 z m 2272,2068.252 c -50.63,57.33 -138.19,62.76 -195.51,12.12 -38.72,-34.2 -53.67,-85.23 -43.75,-132.42 l -156.28,-138.04 -467.32,-11.1 c -16.58,-0.4 -32.43,-6.81 -44.62,-18.04 l -215.83,-198.95 h -218.19 v 167.85 l 246.31,252.71 429.07,-2.36 c 0.14,0 0.24,0 0.38,0 17.4,0 34.13,6.65 46.79,18.58 l 79.55,74.97 c 46.09,-14.19 98.28,-3.98 135.88,31.45 55.66,52.47 58.27,140.15 5.81,195.81 -52.46,55.67 -140.14,58.27 -195.8,5.81 -37.61,-35.43 -50.9,-86.92 -39.46,-133.77 l -59.68,-56.24 -370.6,2.03 v 126.1 l 84.78,80.68 c 46.16,-13.96 98.29,-3.48 135.71,32.13 55.41,52.74 57.57,140.43 4.83,195.84 -52.73,55.4 -140.43,57.57 -195.83,4.84 -37.42,-35.62 -50.45,-87.17 -38.79,-133.96 l -105.96,-100.86 c -13.54,-12.86 -21.19,-30.74 -21.19,-49.41 v -203.35 l -258.89,-265.63 c -14.57,-14.96 -20.59,-34.86 -18.74,-54.14 -0.19,-2.06 -0.63,-4.05 -0.63,-6.16 v -223.2 l -516.65,-525.02 h -136.66 l -133.71,162.13 v 130.5 l 437.67,421.59 c 2.21,1.76 4.48,3.38 6.5,5.46 l 11.25,11.64 8.23,7.91 c 1.44,1.39 2.53,3.05 3.83,4.55 l 385.89,398.85 c 12.3,12.71 19.19,29.73 19.19,47.43 v 230.86 l 106.81,93.62 c 14.77,12.94 23.24,31.65 23.24,51.3 v 109.86 c 41.94,23.81 70.29,68.8 70.29,120.46 0,76.49 -62.03,138.52 -138.51,138.52 -76.5,0 -138.52,-62.03 -138.52,-138.52 0,-51.66 28.35,-96.65 70.3,-120.46 v -78.95 l -106.82,-93.62 c -14.78,-12.94 -23.24,-31.66 -23.24,-51.3 v -234.17 l -254.48,-263.01 -7.9,451.66 183.29,186.52 c 12.53,12.75 19.57,29.92 19.57,47.82 v 213.74 c 41.93,23.81 70.28,68.79 70.28,120.45 0,76.49 -62.03,138.52 -138.52,138.52 -76.49,0 -138.51,-62.03 -138.51,-138.52 0,-51.66 28.35,-96.65 70.29,-120.46 v -185.83 l -183.77,-187 c -12.83,-13.07 -19.88,-30.71 -19.55,-49.02 l 10.77,-615.65 -463.13,-446.11 c -13.36,-12.85 -20.9,-30.59 -20.9,-49.14 v -635.15 c 0,-20.62 9.33,-40.13 25.37,-53.1 l 156.1,-125.99 3.89,-360.5 c -55.29,-24.8 -93.66,-80.591 -92.97,-144.931 0.94,-86.528 72.1,-156.18 158.62,-155.239 86.53,0.942 156.18,72.098 155.24,158.629 -0.65,59.75 -34.81,111.421 -84.38,137.391 l -4.29,398.28 c -0.23,20.35 -9.53,39.56 -25.37,52.35 l -155.76,125.72 v 228.59 l 48.9,-59.31 c 12.97,-15.72 32.27,-24.82 52.64,-24.82 H 2712 c 18.28,0 35.81,7.35 48.62,20.37 l 536.27,544.93 h 284.49 c 17.13,0 33.64,6.45 46.24,18.06 l 216.52,199.58 466.48,11.08 c 16.07,0.38 31.51,6.43 43.56,17.07 l 174.93,154.51 c 45.6,-15.67 98.09,-7.14 136.81,27.06 57.33,50.64 62.76,138.19 12.12,195.52"
             style="fill:url(#linearGradient160);fill-opacity:1;fill-rule:nonzero;stroke:none"
             id="path162" /></g></g><g
         id="g164"><g
           id="g166"
           clip-path="url(#clipPath170)"><path
             d="m 1752.89,919.922 c 0,-66.231 -53.86,-120.09 -120.1,-120.09 -66.24,0 -120.09,53.859 -120.09,120.09 0,66.238 53.85,120.088 120.09,120.088 66.24,0 120.1,-53.85 120.1,-120.088 z m 71.92,1525.888 -302.18,-4.53 -130.23,96.62 v 290.48 c 0,17.85 -7,35 -19.49,47.76 l -235.98,240.77 c 0.01,0.48 0.14,0.93 0.14,1.4 v 251.53 l 111.95,94.89 c 15.31,12.97 24.12,32.01 24.12,52.05 v 65.92 c 41.93,23.81 70.28,68.79 70.28,120.45 0,76.49 -62.02,138.52 -138.51,138.52 -76.49,0 -138.52,-62.03 -138.52,-138.52 0,-51.66 28.36,-96.65 70.3,-120.45 v -34.3 l -111.95,-94.9 c -15.31,-12.96 -24.12,-32 -24.12,-52.04 v -145.48 l -178.675,182.3 v 144.42 c 41.942,23.8 70.297,68.79 70.297,120.45 0,76.49 -62.023,138.52 -138.515,138.52 -76.489,0 -138.52,-62.03 -138.52,-138.52 0,-51.66 28.348,-96.64 70.289,-120.45 v -104.07 h -70.555 c -23.804,41.94 -68.793,70.3 -120.453,70.3 -76.492,0 -138.519,-62.03 -138.519,-138.52 0,-76.49 62.027,-138.52 138.519,-138.52 51.66,0 96.641,28.36 120.45,70.29 h 110.113 l 530.899,-541.67 v -161.37 l -19.77,14.67 c -8.03,10.96 -19.22,19.3 -32.26,23.93 L 871.191,2924.6 c -11.765,8.74 -26.023,13.45 -40.664,13.45 H 551.254 l -122.516,143.37 c -12.965,15.18 -31.925,23.92 -51.875,23.92 H 258.969 c -23.817,41.93 -68.793,70.28 -120.453,70.28 C 62.0234,3175.62 0,3113.59 0,3037.1 c 0,-76.49 62.0234,-138.51 138.516,-138.51 51.668,0 96.648,28.35 120.461,70.29 h 86.441 L 467.93,2825.5 c 12.965,-15.17 31.925,-23.9 51.875,-23.9 H 807.988 L 969.324,2681.89 H 734.555 c -19.992,0 -38.953,-8.75 -51.918,-23.96 L 586.105,2544.7 h -260.91 c -17.093,0 -33.539,-6.42 -46.14,-17.97 l -69.121,-63.45 c -45.899,14.8 -98.207,5.26 -136.266,-29.68 -56.3516,-51.72 -60.0977,-139.36 -8.3672,-195.71 51.7222,-56.34 139.3592,-60.09 195.7112,-8.37 38.058,34.94 52.023,86.24 41.203,133.24 l 49.558,45.49 h 265.821 c 19.984,0 38.945,8.76 51.91,23.97 l 96.531,113.22 h 387.195 l 306.65,-227.52 c 12.06,-8.92 26.75,-13.62 41.69,-13.43 l 256.04,3.84 V 1611 L 1600.7,1510.81 c -19.63,-12.54 -31.51,-34.22 -31.51,-57.51 v -390.04 c -54.91,-24.47 -93.33,-79.459 -93.33,-143.338 0,-86.531 70.41,-156.942 156.93,-156.942 86.53,0 156.94,70.411 156.94,156.942 0,60.226 -34.16,112.578 -84.09,138.868 v 357.13 l 156.92,100.19 c 19.62,12.54 31.5,34.23 31.5,57.51 v 803.96 c 0,18.28 -7.33,35.79 -20.35,48.6 -13.02,12.83 -30.95,19.19 -48.9,19.63"
             style="fill:url(#linearGradient176);fill-opacity:1;fill-rule:nonzero;stroke:none"
             id="path178" /></g></g></g></g></svg>
